<?xml version="1.0" encoding="UTF-8" standalone="no"?>
<svg
   xmlns:dc="http://purl.org/dc/elements/1.1/"
   xmlns:cc="http://creativecommons.org/ns#"
   xmlns:rdf="http://www.w3.org/1999/02/22-rdf-syntax-ns#"
   xmlns:svg="http://www.w3.org/2000/svg"
   xmlns="http://www.w3.org/2000/svg"
   version="1.0"
   id="svg2169"
   height="109.8461"
   width="110.4211">
  <defs
     id="defs2171" />
  <metadata
     id="metadata2174">
    <rdf:RDF>
      <cc:Work
         rdf:about="">
        <dc:format>image/svg+xml</dc:format>
        <dc:type
           rdf:resource="http://purl.org/dc/dcmitype/StillImage" />
        <dc:title></dc:title>
      </cc:Work>
    </rdf:RDF>
  </metadata>
  <g
     transform="translate(-473.36088,-251.72485)"
     id="layer1">
    <path
       style="fill:#1793d1;fill-opacity:1;fill-rule:evenodd;stroke:none"
       id="path2518"
       d="m 525.93658,257.3688 c -4.38675,10.75513 -7.03262,17.79025 -11.91668,28.22568 2.99454,3.17421 6.6702,6.87074 12.63947,11.04563 -6.41755,-2.64078 -10.79509,-5.29207 -14.06651,-8.0433 -6.25067,13.04299 -16.04369,31.62216 -35.91685,67.33019 15.61965,-9.01748 27.72771,-14.57687 39.01185,-16.69818 -0.48454,-2.08402 -0.76003,-4.33831 -0.74131,-6.69039 l 0.0184,-0.50039 c 0.24785,-10.0071 5.45353,-17.70255 11.62016,-17.18005 6.16663,0.52252 10.95988,9.06331 10.71204,19.07041 -0.0466,1.88301 -0.25902,3.69446 -0.63013,5.37456 11.16163,2.1834 23.14023,7.72855 38.54854,16.62404 -3.03822,-5.59357 -5.7501,-10.63576 -8.33983,-15.43793 -4.07926,-3.1617 -8.33413,-7.27667 -17.01325,-11.73136 5.96554,1.5501 10.23677,3.33849 13.56612,5.33748 -26.33059,-49.02296 -28.46281,-55.53709 -37.49215,-76.72639 z" />
    <path
       style="font-style:normal;font-weight:normal;font-size:8.25130367px;font-family:'DejaVu Sans Mono';fill:#1793d1;fill-opacity:1;stroke:none"
       id="path3940"
       d="m 575.70199,347.13018 0,-2.70217 -1.00938,0 0,-0.36154 2.4284,0 0,0.36154 -1.01358,0 0,2.70217 -0.40544,0" />
    <path
       style="font-style:normal;font-weight:normal;font-size:8.25130367px;font-family:'DejaVu Sans Mono';fill:#1793d1;fill-opacity:1;stroke:none"
       id="path3942"
       d="m 577.54316,347.13018 0,-3.06371 0.61022,0 0.72519,2.16926 c 0.0668,0.20202 0.11564,0.35319 0.14628,0.4535 0.0348,-0.11146 0.0892,-0.27516 0.16301,-0.49112 l 0.73354,-2.13164 0.54544,0 0,3.06371 -0.39079,0 0,-2.56424 -0.89027,2.56424 -0.36574,0 -0.88608,-2.60812 0,2.60812 -0.3908,0" />
  </g>
</svg>
